<svg id="visual" viewBox="0 0 1080 720" width="1080" height="720" xmlns="http://www.w3.org/2000/svg" xmlns:xlink="http://www.w3.org/1999/xlink" version="1.1"><rect x="0" y="0" width="1080" height="720" fill="#f5f5f5"></rect><path d="M0 624L7 625.8C14 627.7 28 631.3 41.8 632.2C55.7 633 69.3 631 83.2 631C97 631 111 633 124.8 635.8C138.7 638.7 152.3 642.3 166.2 648.2C180 654 194 662 207.8 662.5C221.7 663 235.3 656 249.2 651.2C263 646.3 277 643.7 290.8 642.2C304.7 640.7 318.3 640.3 332.2 637C346 633.7 360 627.3 373.8 631C387.7 634.7 401.3 648.3 415.2 649.2C429 650 443 638 456.8 633.7C470.7 629.3 484.3 632.7 498.2 635.5C512 638.3 526 640.7 540 644.2C554 647.7 568 652.3 581.8 656.3C595.7 660.3 609.3 663.7 623.2 660.5C637 657.3 651 647.7 664.8 643.8C678.7 640 692.3 642 706.2 647.3C720 652.7 734 661.3 747.8 665.2C761.7 669 775.3 668 789.2 660.5C803 653 817 639 830.8 633C844.7 627 858.3 629 872.2 636C886 643 900 655 913.8 656.8C927.7 658.7 941.3 650.3 955.2 648.7C969 647 983 652 996.8 654.7C1010.7 657.3 1024.3 657.7 1038.2 651.7C1052 645.7 1066 633.3 1073 627.2L1080 621L1080 721L1073 721C1066 721 1052 721 1038.2 721C1024.3 721 1010.7 721 996.8 721C983 721 969 721 955.2 721C941.3 721 927.7 721 913.8 721C900 721 886 721 872.2 721C858.3 721 844.7 721 830.8 721C817 721 803 721 789.2 721C775.3 721 761.7 721 747.8 721C734 721 720 721 706.2 721C692.3 721 678.7 721 664.8 721C651 721 637 721 623.2 721C609.3 721 595.7 721 581.8 721C568 721 554 721 540 721C526 721 512 721 498.2 721C484.3 721 470.7 721 456.8 721C443 721 429 721 415.2 721C401.3 721 387.7 721 373.8 721C360 721 346 721 332.2 721C318.3 721 304.7 721 290.8 721C277 721 263 721 249.2 721C235.3 721 221.7 721 207.8 721C194 721 180 721 166.2 721C152.3 721 138.7 721 124.8 721C111 721 97 721 83.2 721C69.3 721 55.7 721 41.8 721C28 721 14 721 7 721L0 721Z" fill="#000000" stroke-linecap="round" stroke-linejoin="miter"></path></svg>